<?xml version="1.0" encoding="UTF-8"?>
<svg width="48px" height="48px" viewBox="0 0 48 48" version="1.1" xmlns="http://www.w3.org/2000/svg" xmlns:xlink="http://www.w3.org/1999/xlink">
    <!-- Generator: Sketch 52 (66869) - http://www.bohemiancoding.com/sketch -->
    <title>logo</title>
    <desc>Created with Sketch.</desc>
    <g id="Page-1" stroke="none" stroke-width="1" fill="none" fill-rule="evenodd">
        <g id="Ink-Order-Copy-50">
            <g id="Helium-Header-HD" transform="translate(-118.000000, -49.000000)">
                <g id="logo" transform="translate(118.000000, 49.000000)">
                    <rect id="Rectangle" fill="#19252A" x="0" y="0" width="48" height="48"></rect>
                    <g id="suitelogo_symbol">
                        <path d="M8.8590987,26.6007186 L10.1793195,26.7150674 C10.1793195,26.7150674 10.3869688,16.3998814 20.056839,14.358486 C20.056839,14.358486 29.3773065,12.8381837 30.840813,21.6023698 L32.2460857,21.5739744 C32.2460857,21.5739744 31.0162805,11.5987651 20.0851896,13.0645791 C20.0851896,13.0645791 9.54794286,14.4168116 8.8590987,26.6007186" id="Fill-47" fill="#CC6699"></path>
                        <path d="M14.9919571,37.2047698 L16.0072169,36.350607 C16.0072169,36.350607 8.87128182,28.9079558 14.2671,20.6180488 C14.2671,20.6180488 19.7839831,12.9413279 27.0072688,18.1023744 L27.9803857,17.0862814 C27.9803857,17.0862814 20.0682558,10.9037698 13.3744377,19.6825372 C13.3744377,19.6825372 6.87754156,28.100607 14.9919571,37.2047698" id="Fill-49" fill="#666699"></path>
                        <path d="M26.7016948,40.3974814 L26.8166299,39.076714 C26.8166299,39.076714 16.5161494,38.8672023 14.4779675,29.1843884 C14.4779675,29.1843884 12.9608247,19.8476907 21.7104481,18.3826442 L21.6820974,16.9736209 C21.6820974,16.9736209 11.7233571,18.2061326 13.1868636,29.1544581 C13.1868636,29.1544581 14.5362013,39.7083186 26.7016948,40.3974814" id="Fill-51" fill="#6699CC"></path>
                        <path d="M37.2620818,34.2826581 L36.4100299,33.2657977 C36.4100299,33.2657977 28.9790948,40.4137512 20.7014714,35.0086581 C20.7014714,35.0086581 13.0376013,29.4823093 18.1897571,22.2484023 L17.1760299,21.2737512 C17.1760299,21.2737512 11.0047831,29.1975884 19.7681987,35.9027279 C19.7681987,35.9027279 28.1722506,42.4098674 37.2620818,34.2826581" id="Fill-53" fill="#66CCCC"></path>
                        <path d="M40.3831818,22.4877674 L39.062961,22.3726512 C39.062961,22.3726512 38.8545455,32.6886047 29.1862078,34.73 C29.1862078,34.73 19.864974,36.2503023 18.4022338,27.4861163 L16.9954286,27.5145116 C16.9954286,27.5145116 18.2252338,37.4897209 29.1570909,36.0223721 C29.1570909,36.0223721 39.6935714,34.6716744 40.3831818,22.4877674" id="Fill-55" fill="#FFCC00"></path>
                        <path d="M34.3378273,11.9301465 L33.3241,12.7827744 C33.3241,12.7827744 40.4600351,20.226193 35.0642169,28.5168674 C35.0642169,28.5168674 29.5458013,36.1928209 22.3232818,31.0317744 L21.3501649,32.0486349 C21.3501649,32.0486349 29.2622948,38.2303791 35.956113,29.4516116 C35.956113,29.4516116 42.4530091,21.0335419 34.3378273,11.9301465" id="Fill-57" fill="#FF9933"></path>
                        <path d="M22.5697026,8.77350465 L22.4547675,10.0950395 C22.4547675,10.0950395 32.7552481,10.3037837 34.7918974,19.9873651 C34.7918974,19.9873651 36.3098065,29.3232953 27.5594169,30.7883419 L27.5885338,32.1965977 C27.5885338,32.1965977 37.5480403,30.9648535 36.0830013,20.0165279 C36.0830013,20.0165279 34.7344299,9.46266744 22.5697026,8.77350465" id="Fill-59" fill="#FF3333"></path>
                        <path d="M12.0272455,14.828314 L12.8800636,15.8436395 C12.8800636,15.8436395 20.3109987,8.69722093 28.5878558,14.102314 C28.5878558,14.102314 36.2524922,19.6286628 31.0995701,26.8610349 L32.1140636,27.8364535 C32.1140636,27.8364535 38.2860766,19.9126163 29.5218948,13.2074767 C29.5218948,13.2074767 21.1163104,6.70033721 12.0272455,14.828314" id="Fill-61" fill="#993333"></path>
                    </g>
                </g>
            </g>
        </g>
    </g>
</svg>